<?xml version="1.0" standalone="no"?>
<!DOCTYPE svg PUBLIC "-//W3C//DTD SVG 20010904//EN"
 "http://www.w3.org/TR/2001/REC-SVG-20010904/DTD/svg10.dtd">
<svg version="1.0" xmlns="http://www.w3.org/2000/svg"
 width="600.000000pt" height="600.000000pt" viewBox="0 0 600.000000 600.000000"
 preserveAspectRatio="xMidYMid meet">
<metadata>
Created by potrace 1.14, written by Peter Selinger 2001-2017
</metadata>
<g transform="translate(0.000000,600.000000) scale(0.100000,-0.100000)"
fill="#000000" stroke="none">
<path d="M2848 5815 c-75 -54 -78 -89 -10 -100 26 -5 52 -9 57 -11 30 -6 130
-24 138 -24 11 0 -51 78 -104 131 l-36 37 -45 -33z"/>
<path d="M4685 4982 c-30 -16 -30 -17 -6 -20 13 -2 40 -1 60 3 l36 7 -25 14
c-31 17 -29 17 -65 -4z"/>
<path d="M3307 4842 c99 -116 123 -204 81 -289 l-15 -30 34 10 c27 9 35 8 46
-6 16 -22 157 -32 157 -11 0 20 -74 155 -130 239 -57 84 -117 131 -184 144
l-44 8 55 -65z"/>
<path d="M4398 4572 c17 -21 34 -50 37 -65 4 -15 10 -27 14 -27 3 0 27 -7 53
-14 l47 -15 -14 46 c-14 45 -21 58 -33 58 -4 0 -33 13 -64 28 -31 15 -60 27
-63 27 -4 0 7 -17 23 -38z"/>
<path d="M3250 4479 c-30 -5 -62 -10 -72 -11 -15 -2 -56 -68 -42 -68 29 0 117
36 145 60 18 16 32 29 29 28 -3 0 -30 -4 -60 -9z"/>
<path d="M3654 4426 c-6 -16 33 -112 42 -104 6 6 -24 118 -32 118 -3 0 -7 -6
-10 -14z"/>
<path d="M1743 3822 c-56 -42 -122 -95 -148 -116 l-46 -39 -74 23 c-41 13 -75
28 -75 33 0 5 -6 7 -14 4 -8 -3 -95 21 -193 54 -98 32 -183 57 -189 55 -6 -2
-19 -35 -29 -73 -10 -37 -21 -71 -24 -75 -4 -5 -69 13 -144 38 -76 25 -144 43
-152 41 -7 -3 -23 -36 -34 -74 -16 -53 -18 -70 -8 -79 19 -18 272 -98 289 -92
8 3 23 36 32 72 10 36 23 66 30 66 11 0 258 -80 264 -86 2 -1 -25 -43 -60 -92
-128 -178 -207 -369 -258 -622 -164 -814 125 -1563 785 -2037 75 -54 196 -130
286 -180 l56 -31 56 44 c63 49 77 52 115 26 15 -11 41 -26 57 -34 17 -9 50
-27 75 -40 25 -14 81 -44 125 -68 109 -58 109 -57 90 -109 -8 -24 -15 -55 -15
-69 0 -36 -10 -20 -50 73 -40 97 -44 102 -65 81 -36 -36 -83 -66 -103 -66 -20
0 -20 1 -6 36 13 31 12 109 -2 123 -2 2 -51 -20 -109 -49 -88 -45 -106 -59
-115 -85 -14 -44 -29 -115 -24 -115 11 0 69 42 130 94 l34 28 0 -40 c0 -30 -7
-47 -29 -71 -30 -32 -27 -46 6 -34 10 4 39 24 64 45 25 21 48 38 51 38 3 0 6
-21 5 -47 0 -73 9 -94 41 -89 15 2 32 5 38 5 7 1 15 21 18 46 4 25 11 45 15
45 4 0 12 -20 19 -44 10 -38 15 -44 34 -41 13 2 44 6 71 10 38 5 47 10 47 26
0 24 12 24 27 -1 11 -16 20 -18 65 -13 29 3 59 6 66 6 10 0 12 9 8 29 -5 25
-3 28 20 28 17 0 28 7 31 20 3 11 6 20 7 21 0 0 39 2 86 5 123 7 280 31 392
59 275 70 638 243 873 419 166 124 339 314 429 473 99 177 171 442 201 745 l7
66 45 -15 c25 -9 48 -12 53 -7 4 5 15 36 25 69 24 86 26 87 92 64 82 -28 90
-26 103 24 6 23 16 57 22 75 7 25 7 37 -1 45 -7 7 -92 39 -189 72 l-177 60
-16 70 c-9 39 -26 98 -37 131 -24 70 -88 214 -96 214 -2 0 11 -44 30 -97 37
-108 80 -281 71 -289 -3 -3 -72 16 -152 43 -123 40 -149 52 -156 72 -10 24
-17 56 -18 79 -1 10 -6 10 -21 2 -13 -7 -20 -21 -20 -40 0 -16 -4 -31 -9 -34
-12 -8 -538 170 -557 188 -10 10 -24 14 -39 10 -32 -8 -1145 363 -1145 382 0
12 -45 24 -80 22 -32 -3 -433 137 -437 152 -2 9 -28 26 -56 39 -42 19 -57 21
-80 13 -23 -9 -46 -4 -130 24 -56 18 -111 38 -122 44 -11 5 -32 14 -47 20 -16
5 -28 14 -28 18 0 11 168 171 196 188 15 9 16 16 8 42 l-9 32 -102 -78z m-410
-288 c58 -18 68 -31 42 -57 -37 -37 -150 -217 -194 -310 -161 -335 -190 -724
-86 -1161 23 -98 55 -206 74 -251 5 -11 15 -36 22 -55 17 -49 74 -176 104
-232 14 -27 22 -48 19 -48 -16 0 -154 153 -181 200 -50 88 -108 234 -149 375
-2 6 -16 66 -31 135 -25 116 -27 142 -27 355 -1 196 3 248 21 350 39 207 105
410 175 535 67 119 120 191 137 186 9 -2 42 -12 74 -22z m241 -75 c22 -6 50
-15 61 -19 11 -5 35 -11 53 -14 45 -8 132 -48 132 -62 0 -5 -8 -19 -18 -30
-98 -108 -239 -327 -295 -456 -83 -194 -107 -342 -100 -618 9 -403 79 -705
237 -1032 23 -48 37 -84 31 -81 -50 29 -182 122 -234 165 -76 62 -97 101 -194
348 -179 455 -202 823 -77 1209 57 173 194 433 297 559 37 45 45 48 107 31z
m331 -290 c62 -23 63 -28 40 -105 -26 -85 -23 -90 51 -114 36 -12 68 -28 71
-36 2 -7 -2 -37 -11 -68 -25 -87 -24 -92 41 -116 32 -12 70 -24 86 -27 26 -5
28 -9 24 -37 -3 -17 -12 -56 -21 -86 -36 -119 -78 -406 -96 -645 -17 -238 -2
-613 38 -938 9 -71 4 -84 -25 -69 -10 6 -29 14 -43 20 -14 6 -55 24 -91 41
-36 17 -71 31 -77 31 -7 0 -12 4 -12 9 0 5 -11 12 -24 15 -59 15 -93 51 -159
166 -107 187 -148 311 -188 573 -63 409 -35 755 82 1031 47 110 190 336 234
368 14 11 18 10 80 -13z m1032 -177 c6 -14 -22 -141 -33 -151 -6 -6 -142 38
-148 48 -7 11 34 145 46 152 16 10 129 -31 135 -49z m249 -68 c75 -25 77 -29
55 -106 -11 -37 -22 -72 -25 -77 -6 -10 -122 23 -140 40 -10 9 3 78 23 132 12
32 20 33 87 11z m-508 -15 c70 -24 71 -25 43 -114 -12 -39 -25 -61 -36 -63
-24 -5 -135 38 -135 52 0 11 22 94 35 134 6 17 21 15 93 -9z m892 -110 c69
-23 131 -47 139 -55 13 -11 12 -21 -2 -71 -8 -32 -19 -66 -22 -76 -6 -13 1
-21 31 -33 45 -19 53 -29 49 -58 -2 -12 -11 -64 -19 -116 -18 -111 -65 -297
-107 -425 -138 -413 -426 -829 -741 -1071 -174 -133 -161 -128 -229 -90 -56
30 -106 39 -159 27 -39 -9 -46 -7 -97 26 -60 38 -110 51 -140 34 -14 -7 -32
-7 -55 0 -41 11 -35 -8 -67 239 -62 477 -52 913 28 1248 29 123 86 292 98 292
2 0 152 -49 333 -110 181 -60 338 -110 348 -110 15 0 23 14 37 68 10 37 21 71
26 76 5 6 32 2 68 -9 33 -10 66 -15 74 -12 7 3 22 35 31 71 10 36 22 69 27 72
5 3 36 -2 69 -12 32 -9 65 -14 73 -11 8 3 22 34 32 69 20 74 22 78 38 78 7 0
68 -19 137 -41z m-588 9 c52 -17 68 -26 68 -41 0 -25 -30 -130 -40 -141 -9 -9
-136 30 -145 44 -6 10 35 160 43 160 3 0 36 -10 74 -22z m842 -286 c2 -4 -4
-34 -15 -67 -22 -67 -24 -104 -6 -110 143 -50 139 -44 110 -146 -16 -56 -16
-62 -1 -73 9 -7 112 -45 230 -85 117 -40 218 -77 224 -82 26 -21 -46 -283
-115 -426 -104 -214 -278 -404 -472 -516 -96 -55 -248 -130 -384 -190 l-140
-62 -200 -1 c-110 -2 -208 1 -219 5 -15 6 -6 17 55 66 41 32 125 110 187 173
267 270 460 578 580 927 57 166 90 307 127 553 6 39 25 56 39 34z m891 -112
c86 -30 86 -30 64 -107 -10 -37 -23 -71 -28 -76 -10 -10 -136 27 -146 43 -7
11 39 160 49 160 2 0 29 -9 61 -20z m-181 -121 c64 -25 65 -28 39 -119 -18
-67 -22 -69 -99 -44 -75 25 -76 28 -52 112 24 82 26 83 112 51z m91 -229 c67
-23 91 -25 99 -7 12 24 -5 -80 -29 -180 -63 -260 -176 -462 -371 -658 -178
-180 -284 -251 -459 -310 -27 -10 -57 -20 -65 -23 -8 -3 -19 -6 -25 -8 -5 -2
-31 -10 -57 -18 -27 -8 -48 -12 -48 -9 0 3 -7 0 -15 -7 -8 -7 -15 -10 -15 -7
0 3 -21 0 -47 -7 -77 -22 -93 -25 -87 -15 3 5 12 9 20 9 30 0 360 201 419 255
7 6 33 28 59 50 159 132 315 394 391 655 20 69 39 131 41 138 3 9 13 12 32 7
36 -8 45 3 67 80 17 59 23 75 29 75 2 0 29 -9 61 -20z m-1932 -1664 l21 -29
-32 19 c-18 10 -47 34 -65 53 l-32 34 44 -24 c24 -13 52 -37 64 -53z"/>
<path d="M2135 619 c-22 -9 -46 -18 -54 -18 -7 -1 -35 -18 -61 -38 -26 -21
-56 -43 -66 -50 -16 -10 -13 -11 21 -7 95 12 101 14 155 69 30 30 52 56 49 58
-2 3 -22 -4 -44 -14z"/>
</g>
</svg>
